<svg xmlns="http://www.w3.org/2000/svg" version="1.1" xmlns:xlink="http://www.w3.org/1999/xlink" xmlns:svgjs="http://svgjs.dev/svgjs" width="1000" height="1000" viewBox="0 0 1000 1000"><rect width="1000" height="1000" fill="#000000"></rect><g transform="matrix(0.7,0,0,0.7,150.11896067415722,412.42965159531803)"><svg viewBox="0 0 356 89" data-background-color="#ffffff" preserveAspectRatio="xMidYMid meet" height="250" width="1000" xmlns="http://www.w3.org/2000/svg" xmlns:xlink="http://www.w3.org/1999/xlink"><g id="tight-bounds" transform="matrix(1,0,0,1,-0.06049999999996203,0.03577718866682744)"><svg viewBox="0 0 356.12052 88.92844562266637" height="88.92844562266637" width="356.12052"><g><svg viewBox="0 0 356.12052 88.92844562266637" height="88.92844562266637" width="356.12052"><g><svg viewBox="0 0 356.12052 88.92844562266637" height="88.92844562266637" width="356.12052"><g><path d="M0 88.928v-88.928h356.121v88.928z" fill="#348662" stroke="transparent" stroke-width="0" rx="0%" data-fill-palette-color="tertiary"></path><path d="M3.283 85.645v-82.362h349.554v82.362z" fill="#ffffff" stroke="transparent" stroke-width="0" rx="0%" data-fill-palette-color="quaternary"></path><path d="M9.85 79.079v-69.229h336.421v69.229z" fill="#348662" stroke="transparent" stroke-width="0" data-fill-palette-color="tertiary"></path></g><g transform="matrix(1,0,0,1,19.69974,19.69974)"><svg viewBox="0 0 316.72104 49.52896562266638" height="49.52896562266638" width="316.72104"><g><svg viewBox="0 0 316.72104 49.52896562266638" height="49.52896562266638" width="316.72104"><g transform="matrix(1,0,0,1,0,0)"><svg width="316.72104" viewBox="3.799999952316284 -35 227.62998962402344 35.599998474121094" height="49.52896562266638" data-palette-color="#ffffff"><path d="M10.5-34.45Q16.55-34.45 19.68-31.75 22.8-29.05 22.8-23.8L22.8-23.8Q22.8-18.2 19.63-15.48 16.45-12.75 10.6-12.75L10.6-12.75 8.35-12.75 8.35 0 3.8 0 3.8-34.45 10.5-34.45ZM10.6-16.35Q14.45-16.35 16.25-17.98 18.05-19.6 18.05-23.75L18.05-23.75Q18.05-27.5 16.23-29.18 14.4-30.85 10.6-30.85L10.6-30.85 8.35-30.85 8.35-16.35 10.6-16.35ZM38.2-35Q43.9-35 47.1-30.58 50.3-26.15 50.3-17.2L50.3-17.2Q50.3-8.35 47.1-3.88 43.9 0.6 38.2 0.6L38.2 0.6Q32.5 0.6 29.27-3.8 26.05-8.2 26.05-17.15L26.05-17.15Q26.05-26 29.3-30.5 32.55-35 38.2-35L38.2-35ZM38.2-31.3Q34.6-31.3 32.72-28 30.85-24.7 30.85-17.15L30.85-17.15Q30.85-9.65 32.75-6.4 34.65-3.15 38.2-3.15L38.2-3.15Q41.8-3.15 43.65-6.38 45.5-9.6 45.5-17.2L45.5-17.2Q45.5-24.75 43.65-28.03 41.8-31.3 38.2-31.3L38.2-31.3ZM81.7-34.45L85.94-34.45 80.45 0 74.5 0 69.75-29 64.95 0 59.09 0 53.65-34.45 58.05-34.45 62.2-4 67.3-34.45 72.3-34.45 77.4-4 81.7-34.45ZM90.84-34.45L106.64-34.45 106.14-30.8 95.39-30.8 95.39-19.35 104.74-19.35 104.74-15.7 95.39-15.7 95.39-3.65 106.84-3.65 106.84 0 90.84 0 90.84-34.45ZM132.99 0L127.99 0 121.29-14.75Q120.94-14.7 120.24-14.7L120.24-14.7 117.14-14.7 117.14 0 112.59 0 112.59-34.45 119.49-34.45Q125.54-34.45 128.49-31.95 131.44-29.45 131.44-24.75L131.44-24.75Q131.44-21.45 129.89-19.07 128.34-16.7 125.44-15.6L125.44-15.6 132.99 0ZM119.84-18.2Q123.44-18.2 125.04-19.78 126.64-21.35 126.64-24.75L126.64-24.75Q126.64-27.9 124.99-29.38 123.34-30.85 119.44-30.85L119.44-30.85 117.14-30.85 117.14-18.2 119.84-18.2ZM144.14-34.45Q148.34-34.45 151.41-33.13 154.49-31.8 156.41-28.03 158.34-24.25 158.34-17.4L158.34-17.4Q158.34-7.65 154.54-3.83 150.74 0 144.89 0L144.89 0 137.69 0 137.69-34.45 144.14-34.45ZM144.99-30.8L142.24-30.8 142.24-3.6 145.19-3.6Q147.69-3.6 149.51-4.7 151.34-5.8 152.46-8.83 153.59-11.85 153.59-17.4L153.59-17.4Q153.59-23.05 152.41-25.98 151.24-28.9 149.41-29.85 147.59-30.8 144.99-30.8L144.99-30.8ZM184.54 0L179.89 0 177.84-8.75 167.54-8.75 165.49 0 160.99 0 169.94-34.45 175.59-34.45 184.54 0ZM172.69-30.65L168.39-12.4 176.99-12.4 172.69-30.65ZM196.23-35Q198.98-35 201.11-34.02 203.23-33.05 205.03-31.05L205.03-31.05 202.63-28.45Q201.08-29.95 199.58-30.63 198.08-31.3 196.28-31.3L196.28-31.3Q194.13-31.3 192.81-29.93 191.48-28.55 191.48-26.3L191.48-26.3Q191.48-24.1 192.76-22.7 194.03-21.3 197.58-19.95L197.58-19.95Q201.68-18.4 203.78-16.1 205.88-13.8 205.88-9.55L205.88-9.55Q205.88-6.8 204.61-4.48 203.33-2.15 200.98-0.78 198.63 0.6 195.53 0.6L195.53 0.6Q192.43 0.6 190.03-0.55 187.63-1.7 185.68-3.85L185.68-3.85 188.13-6.45Q189.88-4.85 191.61-4 193.33-3.15 195.43-3.15L195.43-3.15Q198.03-3.15 199.58-4.85 201.13-6.55 201.13-9.45L201.13-9.45Q201.13-11.95 199.88-13.45 198.63-14.95 195.23-16.2L195.23-16.2Q190.88-17.85 188.86-20.2 186.83-22.55 186.83-26.1L186.83-26.1Q186.83-28.55 188.03-30.6 189.23-32.65 191.38-33.83 193.53-35 196.23-35L196.23-35ZM231.43 0L226.88 0 226.88-16.2 215.78-16.2 215.78 0 211.23 0 211.23-34.45 215.78-34.45 215.78-19.95 226.88-19.95 226.88-34.45 231.43-34.45 231.43 0Z" opacity="1" transform="matrix(1,0,0,1,0,0)" fill="#ffffff" class="undefined-text-0" data-fill-palette-color="quaternary" id="text-0"></path></svg></g></svg></g></svg></g></svg></g><g></g></svg></g><defs></defs></svg><rect width="356.12052" height="88.92844562266637" fill="none" stroke="none" visibility="hidden"></rect></g></svg></g></svg>